<?xml version="1.0" encoding="UTF-8"?>
<svg id="Layer_1" data-name="Layer 1" xmlns="http://www.w3.org/2000/svg" viewBox="0 0 92.89 92.89">
  <defs>
    <style>
      .cls-1 {
        fill: none;
        stroke: #d1232a;
        stroke-width: 4px;
      }

      .cls-2 {
        fill: #231f20;
      }

      .cls-3 {
        fill: #fff35f;
      }
    </style>
  </defs>
  <path class="cls-3" d="M46.44,90.89c24.55,0,44.44-19.9,44.44-44.44S70.99,2,46.44,2,2,21.9,2,46.44s19.9,44.44,44.44,44.44"/>
  <circle class="cls-1" cx="46.44" cy="46.44" r="44.44" transform="translate(-2.5 90.25) rotate(-86.83)"/>
  <path class="cls-2" d="M33.94,36.87h4.87c.25-1.97,1.08-3.54,2.46-4.71,1.39-1.17,3.21-1.75,5.47-1.75s4.13.58,5.39,1.75c1.26,1.17,1.89,2.72,1.89,4.65,0,2.26-.86,3.93-2.57,5.01-1.72,1.07-4.25,1.63-7.61,1.67h-1.31v4.16h1.26c3.69,0,6.44.6,8.26,1.81,1.83,1.2,2.74,3.17,2.74,5.91,0,2.11-.66,3.84-2,5.17-1.33,1.33-3.28,2-5.83,2s-4.6-.69-6.13-2.08c-1.53-1.39-2.43-3.17-2.68-5.36h-4.82c.29,3.72,1.68,6.59,4.16,8.62,2.48,2.02,5.66,3.04,9.52,3.04,2.66,0,4.94-.47,6.84-1.42,1.9-.95,3.32-2.25,4.27-3.91.95-1.66,1.42-3.53,1.42-5.61,0-2.77-.69-5.02-2.08-6.73-1.39-1.72-3.26-2.87-5.64-3.45v-.27c2.08-.47,3.77-1.53,5.06-3.17,1.29-1.64,1.94-3.59,1.94-5.86,0-1.93-.47-3.67-1.4-5.2-.93-1.53-2.3-2.74-4.1-3.64-1.81-.9-3.95-1.34-6.43-1.34-3.72,0-6.75.95-9.08,2.85-2.33,1.9-3.63,4.52-3.89,7.88"/>
</svg>