<?xml version="1.0" encoding="UTF-8"?>
<svg id="Layer_1" data-name="Layer 1" xmlns="http://www.w3.org/2000/svg" viewBox="0 0 92.89 92.89">
  <defs>
    <style>
      .cls-1 {
        fill: none;
        stroke: #d1232a;
        stroke-miterlimit: 4;
        stroke-width: 4px;
      }

      .cls-2 {
        fill: #231f20;
      }

      .cls-3 {
        fill: #fff35f;
      }
    </style>
  </defs>
  <path class="cls-3" d="M46.44,90.89c24.55,0,44.44-19.9,44.44-44.44S70.99,2,46.44,2,2,21.9,2,46.44s19.9,44.44,44.44,44.44"/>
  <circle class="cls-1" cx="46.44" cy="46.45" r="44.44"/>
  <path class="cls-2" d="M46.28,29.09c-3.35,0-5.85,1.29-7.51,3.87-1.66,2.58-2.47,6.82-2.43,12.73.87-1.96,2.3-3.49,4.32-4.6,2.01-1.11,4.26-1.67,6.75-1.67,3.88,0,6.97,1.21,9.29,3.61,2.31,2.41,3.47,5.74,3.47,9.99,0,2.56-.5,4.85-1.5,6.89-1,2.03-2.5,3.65-4.52,4.85-2.01,1.21-4.45,1.81-7.31,1.81-3.88,0-6.91-.87-9.09-2.6-2.18-1.73-3.71-4.12-4.57-7.17-.87-3.05-1.3-6.81-1.3-11.29,0-13.81,4.82-20.72,14.45-20.72,3.69,0,6.58,1,8.69,2.99,2.11,2,3.35,4.52,3.73,7.56h-4.74c-.83-4.18-3.41-6.27-7.73-6.27ZM41.76,44.75c-1.43.66-2.59,1.66-3.47,2.99-.88,1.34-1.33,2.96-1.33,4.88,0,2.86.83,5.18,2.48,6.97,1.66,1.79,4.03,2.68,7.11,2.68,2.63,0,4.73-.82,6.29-2.46s2.34-3.85,2.34-6.63c0-2.93-.75-5.24-2.26-6.91-1.51-1.67-3.71-2.51-6.6-2.51-1.62,0-3.14.33-4.57.99Z"/>
</svg>