<?xml version="1.0" encoding="UTF-8"?>
<svg id="Layer_1" xmlns="http://www.w3.org/2000/svg" version="1.1" viewBox="0 0 662.09 662.09">
  <!-- Generator: Adobe Illustrator 30.0.0, SVG Export Plug-In . SVG Version: 2.1.1 Build 123)  -->
  <defs>
    <style>
      .st0 {
        fill: #fff;
      }

      .st1 {
        fill: #00a3da;
      }

      .st2 {
        isolation: isolate;
      }
    </style>
  </defs>
  <circle class="st1" cx="331.04" cy="331.04" r="331.04"/>
  <g class="st2">
    <path class="st0" d="M145.45,511.97c-76.69,2.94-81.09-103.92-29.44-141.76-11.26-46.4,4.47-105.57,33.64-143.12,10.14-13.03,44.12-38.25,48.76-46.28,6.09-10.53.78-14.05,14.37-25.22,49.8-40.92,182.56-38.06,235.44-3.16,17.04,11.24,12.13,17.98,20.63,29.51,6.41,8.64,24.95,20.61,34.05,31.94,33.44,41.7,51.6,103.58,40.94,156.35,10.02,7.55,20.14,12.72,27.09,23.74,14.9,23.74,11.7,77.71-7.01,99.58-10.29,12.01-45.72,31.43-49.05,6.65-1.75-13.06-1.21-129.33,1.53-135.96,1.24-3.06,6.43-5.65,7.98-10.48,6.67-20.63-9.59-74.22-19.49-94.31-6.43-13.03-37.52-58.93-51.94-58.78-5.68.05-9.32,6.43-17.84,4.73-5.63-1.14-24.61-15.24-33.74-19.32-51.48-22.96-98.58-18.81-148.73,4.2-7.72,3.54-15.75,11.94-23.35,13.83-8.83,2.18-13.03-3.45-18.15-2.33-16.19,3.54-51.02,47.52-58.25,62.96-8.23,17.57-24.12,75.82-15.34,92.13,1.55,2.91,7.86,4.93,7.86,5.99v149.14h0l.02-.02Z"/>
    <path class="st0" d="M474.8,335.6c19.25-2.23,30.82,5.56,32.4,24.49,2.86,34.95,4.39,122.54-.34,155.59-4.32,30.02-54.53,26.11-57.88-2.33-5.7-48.71,4.25-108.37.22-158.26.15-10.56,16.82-18.45,25.6-19.46h0v-.02Z"/>
    <path class="st0" d="M173.78,338.39c12.04-2.45,34.92-.44,37.62,13.96v168.82c-9.15,22.57-51.33,19.17-55.21-5.39v-160.69c.56-8.76,9.61-15.07,17.62-16.7h-.02Z"/>
  </g>
  <g class="st2">
    <path class="st0" d="M145.45,511.96c-76.69,2.94-81.09-103.92-29.44-141.76-11.26-46.4,4.47-105.57,33.64-143.12,10.14-13.03,44.12-38.25,48.76-46.28,6.09-10.53.78-14.05,14.37-25.22,49.8-40.92,182.56-38.06,235.44-3.16,17.04,11.24,12.13,17.98,20.63,29.51,6.41,8.64,24.95,20.61,34.05,31.94,33.44,41.7,51.6,103.58,40.94,156.35,10.02,7.55,20.14,12.72,27.09,23.74,14.9,23.74,11.7,77.71-7.01,99.58-10.29,12.01-45.72,31.43-49.05,6.65-1.75-13.06-1.21-129.33,1.53-135.96,1.24-3.06,6.43-5.65,7.98-10.48,6.67-20.63-9.59-74.22-19.49-94.31-6.43-13.03-37.52-58.93-51.94-58.78-5.68.05-9.32,6.43-17.84,4.73-5.63-1.14-24.61-15.24-33.74-19.32-51.48-22.96-98.58-18.81-148.73,4.2-7.72,3.54-15.75,11.94-23.35,13.83-8.83,2.18-13.03-3.45-18.15-2.33-16.19,3.54-51.02,47.52-58.25,62.96-8.23,17.57-24.12,75.82-15.34,92.13,1.55,2.91,7.86,4.93,7.86,5.99v149.14h0l.02-.02Z"/>
    <path class="st0" d="M474.8,335.61c19.25-2.23,30.82,5.56,32.4,24.49,2.86,34.95,4.39,122.54-.34,155.59-4.32,30.02-54.53,26.11-57.88-2.33-5.7-48.71,4.25-108.37.22-158.26.15-10.56,16.82-18.45,25.6-19.46h0v-.02Z"/>
    <path class="st0" d="M173.78,338.38c12.04-2.45,34.92-.44,37.62,13.96v168.82c-9.15,22.57-51.33,19.17-55.21-5.39v-160.69c.56-8.76,9.61-15.07,17.62-16.7h-.02Z"/>
  </g>
</svg>