<?xml version="1.0" encoding="UTF-8"?>
<svg id="Layer_1" xmlns="http://www.w3.org/2000/svg" version="1.1" viewBox="0 0 662.09 662.09">
  <!-- Generator: Adobe Illustrator 30.0.0, SVG Export Plug-In . SVG Version: 2.1.1 Build 123)  -->
  <defs>
    <style>
      .st0 {
        fill: #2a3773;
      }

      .st1 {
        fill: #fff;
      }

      .st2 {
        isolation: isolate;
      }
    </style>
  </defs>
  <g>
    <path class="st0" d="M662.07,330.99c0,45.78-9.33,89.31-25.99,129.02-37.65,88.95-113.07,157.97-206.24,187.13-31.2,9.63-64.37,14.95-98.79,14.95C148.16,662.07,0,513.9,0,331.03S148.16,0,331.03,0s331.03,148.16,331.03,331.03h0v-.04Z"/>
    <path class="st1" d="M331.03,643.48c-172.33,0-312.45-140.16-312.45-312.45S158.74,18.59,331.03,18.59s312.45,140.16,312.45,312.45c0,42.19-8.29,83.17-24.54,121.81-35.94,84.73-106.82,149.12-194.64,176.62-30.2,9.33-61.56,14.11-93.23,14.11h0v-.11h-.04v.02ZM331.03,37.08c-162.03,0-293.91,131.87-293.91,293.91s131.87,293.91,293.91,293.91c29.79,0,59.33-4.44,87.76-13.22,82.54-25.88,149.31-86.42,183.06-166.08,15.32-36.31,23.06-74.9,23.06-114.52,0-162.03-131.87-293.91-293.91-293.91h0v-.04l.02-.04Z"/>
  </g>
  <g class="st2">
    <path class="st1" d="M160.21,467.89c-70.58,2.71-74.63-95.65-27.1-130.47-10.36-42.71,4.11-97.17,30.96-131.73,9.33-11.99,40.61-35.2,44.88-42.6,5.61-9.69.72-12.93,13.23-23.21,45.84-37.66,168.03-35.03,216.7-2.91,15.68,10.35,11.16,16.55,18.99,27.16,5.9,7.95,22.96,18.97,31.34,29.4,30.78,38.38,47.49,95.33,37.68,143.9,9.22,6.95,18.54,11.71,24.93,21.85,13.71,21.85,10.77,71.52-6.45,91.65-9.47,11.05-42.08,28.93-45.14,6.12-1.61-12.02-1.11-119.03,1.41-125.14,1.14-2.82,5.92-5.2,7.34-9.65,6.14-18.99-8.83-68.31-17.94-86.8-5.92-11.99-34.53-54.24-47.8-54.1-5.23.05-8.58,5.92-16.42,4.35-5.18-1.05-22.65-14.03-31.05-17.78-47.38-21.13-90.73-17.31-136.89,3.87-7.11,3.26-14.5,10.99-21.49,12.73-8.13,2.01-11.99-3.18-16.71-2.14-14.9,3.26-46.96,43.74-53.61,57.95-7.57,16.17-22.2,69.78-14.12,84.8,1.43,2.68,7.23,4.54,7.23,5.51v137.27h0l.02-.02h.02Z"/>
    <path class="st1" d="M463.34,305.56c17.72-2.05,28.37,5.12,29.82,22.54,2.63,32.17,4.04,112.78-.31,143.2-3.98,27.63-50.19,24.03-53.27-2.14-5.25-44.83,3.91-99.74.2-145.66.14-9.72,15.48-16.98,23.56-17.91h0v-.02h0Z"/>
    <path class="st1" d="M186.28,308.13c11.08-2.25,32.14-.4,34.62,12.85v155.38c-8.42,20.77-47.24,17.64-50.81-4.96v-147.9c.52-8.06,8.84-13.87,16.22-15.37h-.03Z"/>
  </g>
</svg>