<?xml version="1.0" encoding="UTF-8"?>
<svg id="OBJECTS" xmlns="http://www.w3.org/2000/svg" version="1.1" viewBox="0 0 306 306">
  <!-- Generator: Adobe Illustrator 30.0.0, SVG Export Plug-In . SVG Version: 2.1.1 Build 123)  -->
  <defs>
    <style>
      .st0 {
        fill: #2a3773;
      }

      .st1 {
        fill: #fff;
      }
    </style>
  </defs>
  <g>
    <path class="st0" d="M306,152.98c0,21.16-4.31,41.28-12.01,59.63-17.4,41.11-52.26,73.01-95.32,86.49-14.42,4.45-29.75,6.91-45.66,6.91C68.48,306,0,237.52,0,153S68.48,0,153,0s153,68.48,153,153h0v-.02Z"/>
    <path class="st1" d="M153,297.41c-79.65,0-144.41-64.78-144.41-144.41S73.37,8.59,153,8.59s144.41,64.78,144.41,144.41c0,19.5-3.83,38.44-11.34,56.3-16.61,39.16-49.37,68.92-89.96,81.63-13.96,4.31-28.45,6.52-43.09,6.52h0v-.05h-.02ZM153,17.14c-74.89,0-135.84,60.95-135.84,135.84s60.95,135.84,135.84,135.84c13.77,0,27.42-2.05,40.56-6.11,38.15-11.96,69.01-39.94,84.61-76.76,7.08-16.78,10.66-34.62,10.66-52.93,0-74.89-60.95-135.84-135.84-135.84h0v-.02Z"/>
  </g>
  <polygon class="st1" points="159.93 181.69 145.44 236 74.86 70.05 231.11 142.46 176.81 161.16 231.11 220.28 211.81 236 159.93 181.69"/>
</svg>