<?xml version="1.0" encoding="UTF-8"?>
<svg id="OBJECTS" xmlns="http://www.w3.org/2000/svg" version="1.1" viewBox="0 0 268 268">
  <!-- Generator: Adobe Illustrator 30.0.0, SVG Export Plug-In . SVG Version: 2.1.1 Build 123)  -->
  <defs>
    <style>
      .st0 {
        fill: #fff;
      }

      .st1 {
        fill: #e53935;
      }
    </style>
  </defs>
  <g>
    <path class="st1" d="M268,134c0,20-4.36,38.99-12.27,55.99-15.4,33.54-44.29,59.54-79.65,71.28-13.23,4.36-27.38,6.73-42.08,6.73C59.98,268,0,208.02,0,134S59.98,0,134,0s134,59.98,134,134h0Z"/>
    <path class="st0" d="M134,260.49c-69.75,0-126.49-56.74-126.49-126.49S64.25,7.51,134,7.51s126.49,56.74,126.49,126.49c0,18.53-3.9,36.32-11.57,52.84-14.61,31.74-41.99,56.28-75.2,67.3-12.79,4.21-26.13,6.35-39.76,6.35h.04ZM134,15.03c-65.59,0-118.97,53.39-118.97,118.97s53.39,118.97,118.97,118.97c12.79,0,25.35-2.02,37.37-5.96,31.22-10.34,57-33.43,70.74-63.31,7.21-15.55,10.87-32.29,10.87-49.71,0-65.59-53.39-118.97-118.97-118.97h0Z"/>
  </g>
  <path class="st0" d="M190.61,124.87l-2.19-2.19-.07-.07c-.48-.37-1.01-.77-1.58-1.1l-30.41-18.2-38.4-23.05c-2.26-1.34-4.84-2.1-7.45-2.1-8.04,0-14.59,6.55-14.59,14.59v82.52c0,3.35,1.12,6.4,3.04,8.83.77,1.01,1.64,1.93,2.67,2.67,2.43,1.93,5.54,3.04,8.85,3.04,2.58,0,5.17-.7,7.45-2.06l68.81-41.25c4.45-2.67,7.1-7.34,7.1-12.51,0-3.42-1.16-6.59-3.26-9.13h.02ZM180.99,136.8l-68.81,41.25c-1.97,1.23-4.95,0-4.95-2.76v-82.52c0-2.04,1.73-3.31,3.31-3.31.57,0,1.12.18,1.64.48l36.01,21.58,32.82,19.69c1.42.85,1.62,2.26,1.62,2.76,0,.57-.18,1.95-1.62,2.83h-.02Z"/>
</svg>