<?xml version="1.0" encoding="UTF-8"?>
<svg id="Layer_1" data-name="Layer 1" xmlns="http://www.w3.org/2000/svg" viewBox="0 0 92.89 92.89">
  <defs>
    <style>
      .cls-1 {
        fill: none;
        stroke: #d1232a;
        stroke-width: 4px;
      }

      .cls-2 {
        fill: #231f20;
      }

      .cls-3 {
        fill: #fff35f;
      }
    </style>
  </defs>
  <path class="cls-3" d="M46.44,90.89c24.55,0,44.44-19.9,44.44-44.44S70.99,2,46.44,2,2,21.9,2,46.44s19.9,44.44,44.44,44.44"/>
  <circle class="cls-1" cx="46.44" cy="46.44" r="44.44" transform="translate(-2.5 90.25) rotate(-86.83)"/>
  <path class="cls-2" d="M33.03,63.12v3.63h26.83v-4.24h-19.19c3.65-2.94,6.64-5.51,8.98-7.73,2.34-2.21,4.43-4.78,6.27-7.7s2.76-5.92,2.76-9.01c0-3.72-1.12-6.64-3.37-8.76-2.25-2.12-5.29-3.18-9.12-3.18s-6.82,1.14-9.2,3.4c-2.38,2.27-3.65,5.49-3.79,9.65h4.91c.11-2.64.86-4.75,2.26-6.33,1.39-1.58,3.35-2.37,5.88-2.37s4.49.7,5.66,2.09,1.76,3.3,1.76,5.72c0,2.57-.92,5.18-2.76,7.84-1.84,2.66-4.1,5.21-6.78,7.64-2.68,2.43-6.38,5.55-11.1,9.34"/>
</svg>