<?xml version="1.0" encoding="UTF-8"?>
<svg id="Layer_1" data-name="Layer 1" xmlns="http://www.w3.org/2000/svg" viewBox="0 0 92.89 92.89">
  <defs>
    <style>
      .cls-1 {
        fill: none;
        stroke: #d1232a;
        stroke-width: 4px;
      }

      .cls-2 {
        fill: #231f20;
      }

      .cls-3 {
        fill: #fff35f;
      }
    </style>
  </defs>
  <path class="cls-3" d="M46.44,90.89c24.55,0,44.44-19.9,44.44-44.44S70.99,2,46.44,2,2,21.9,2,46.44s19.9,44.44,44.44,44.44"/>
  <circle class="cls-1" cx="46.44" cy="46.44" r="44.44" transform="translate(-2.5 90.25) rotate(-86.83)"/>
  <path class="cls-2" d="M57.74,26.14h-24.33v22.82h4.81c.67-1.64,1.74-2.94,3.22-3.89s3.2-1.43,5.17-1.43c2.91,0,5.11.79,6.6,2.38s2.24,3.83,2.24,6.74-.75,5.25-2.24,7.02-3.71,2.66-6.66,2.66c-2.39,0-4.36-.6-5.93-1.79-1.57-1.19-2.59-2.85-3.08-4.98h-4.98c.52,3.36,1.99,6.04,4.42,8.05,2.43,2.01,5.59,3.02,9.51,3.02,3.06,0,5.62-.62,7.69-1.85,2.07-1.23,3.61-2.91,4.61-5.03s1.51-4.53,1.51-7.22c0-2.27-.42-4.43-1.26-6.46-.84-2.03-2.23-3.69-4.17-4.98s-4.45-1.93-7.55-1.93c-1.94,0-3.75.38-5.43,1.15-1.68.76-2.94,1.74-3.8,2.94v-12.75h19.63v-4.47Z"/>
</svg>