<?xml version="1.0" encoding="UTF-8"?>
<svg id="Layer_1" xmlns="http://www.w3.org/2000/svg" version="1.1" viewBox="0 0 92.89 92.89">
  <!-- Generator: Adobe Illustrator 30.0.0, SVG Export Plug-In . SVG Version: 2.1.1 Build 123)  -->
  <defs>
    <style>
      .st0 {
        fill: #221f1f;
      }

      .st1 {
        fill: none;
        stroke: #d1232a;
        stroke-width: 4px;
      }

      .st2 {
        fill: #fff35f;
      }
    </style>
  </defs>
  <path class="st2" d="M46.44,90.89c24.55,0,44.44-19.9,44.44-44.44S70.99,2,46.44,2,2,21.9,2,46.44s19.9,44.44,44.44,44.44"/>
  <circle class="st1" cx="46.44" cy="46.45" r="44.44"/>
  <path class="st0" d="M34.7,41.76c-1.13-1.58-1.69-3.5-1.69-5.76,0-2.03.51-3.87,1.52-5.5,1.02-1.64,2.53-2.94,4.54-3.9,2.01-.96,4.45-1.44,7.31-1.44s5.3.48,7.31,1.44c2.01.96,3.54,2.26,4.57,3.9,1.04,1.64,1.55,3.47,1.55,5.5,0,2.18-.58,4.09-1.75,5.73-1.17,1.64-2.77,2.85-4.8,3.64,2.33.71,4.19,1.97,5.56,3.75,1.37,1.79,2.06,3.94,2.06,6.46s-.6,4.58-1.81,6.41c-1.2,1.83-2.91,3.24-5.11,4.23-2.2,1-4.73,1.5-7.59,1.5s-5.37-.5-7.54-1.5c-2.16-1-3.85-2.41-5.05-4.23-1.21-1.83-1.81-3.96-1.81-6.41s.68-4.69,2.03-6.49c1.35-1.81,3.2-3.05,5.53-3.73-2.11-.83-3.73-2.03-4.85-3.61ZM39.55,49.58c-1.77,1.3-2.65,3.25-2.65,5.84,0,2.41.86,4.35,2.57,5.81,1.71,1.47,4.02,2.2,6.92,2.2s5.19-.73,6.89-2.2c1.69-1.47,2.54-3.4,2.54-5.81s-.87-4.45-2.6-5.79c-1.73-1.33-4.01-2-6.83-2s-5.06.65-6.83,1.95ZM52.59,31.32c-1.51-1.24-3.58-1.86-6.21-1.86s-4.65.62-6.15,1.86c-1.51,1.24-2.26,3.03-2.26,5.36,0,2.11.78,3.8,2.34,5.08,1.56,1.28,3.58,1.92,6.07,1.92s4.56-.65,6.12-1.95,2.34-3,2.34-5.11c0-2.29-.75-4.06-2.26-5.31Z"/>
</svg>